<mxfile host="app.diagrams.net" modified="2020-09-27T05:17:37.721Z" agent="5.0 (Windows)" etag="ZBfAcY72_UcIM67gt063" version="13.7.4" type="github">
  <diagram id="6F67V6D0bh5tr_LGvf85" name="Page-1">
    <mxGraphModel dx="1022" dy="1653" grid="1" gridSize="10" guides="1" tooltips="1" connect="1" arrows="1" fold="1" page="1" pageScale="1" pageWidth="827" pageHeight="1169" math="0" shadow="0">
      <root>
        <mxCell id="0" />
        <mxCell id="1" parent="0" />
        <mxCell id="fFGtBPCFO5k9vrR7dXlU-106" value="" style="shape=table;html=1;whiteSpace=wrap;startSize=0;container=1;collapsible=0;childLayout=tableLayout;" vertex="1" parent="1">
          <mxGeometry x="80" y="-70" width="150" height="640" as="geometry" />
        </mxCell>
        <mxCell id="fFGtBPCFO5k9vrR7dXlU-107" value="" style="shape=partialRectangle;html=1;whiteSpace=wrap;collapsible=0;dropTarget=0;pointerEvents=0;fillColor=none;top=0;left=0;bottom=0;right=0;points=[[0,0.5],[1,0.5]];portConstraint=eastwest;" vertex="1" parent="fFGtBPCFO5k9vrR7dXlU-106">
          <mxGeometry width="150" height="40" as="geometry" />
        </mxCell>
        <mxCell id="fFGtBPCFO5k9vrR7dXlU-108" value="Pedi" style="shape=partialRectangle;html=1;whiteSpace=wrap;connectable=0;overflow=hidden;fillColor=none;top=0;left=0;bottom=0;right=0;" vertex="1" parent="fFGtBPCFO5k9vrR7dXlU-107">
          <mxGeometry width="60" height="40" as="geometry" />
        </mxCell>
        <mxCell id="fFGtBPCFO5k9vrR7dXlU-109" value="Class" style="shape=partialRectangle;html=1;whiteSpace=wrap;connectable=0;overflow=hidden;fillColor=none;top=0;left=0;bottom=0;right=0;" vertex="1" parent="fFGtBPCFO5k9vrR7dXlU-107">
          <mxGeometry x="60" width="90" height="40" as="geometry" />
        </mxCell>
        <mxCell id="fFGtBPCFO5k9vrR7dXlU-110" value="" style="shape=partialRectangle;html=1;whiteSpace=wrap;collapsible=0;dropTarget=0;pointerEvents=0;fillColor=none;top=0;left=0;bottom=0;right=0;points=[[0,0.5],[1,0.5]];portConstraint=eastwest;" vertex="1" parent="fFGtBPCFO5k9vrR7dXlU-106">
          <mxGeometry y="40" width="150" height="40" as="geometry" />
        </mxCell>
        <mxCell id="fFGtBPCFO5k9vrR7dXlU-111" value=".627" style="shape=partialRectangle;html=1;whiteSpace=wrap;connectable=0;overflow=hidden;fillColor=none;top=0;left=0;bottom=0;right=0;" vertex="1" parent="fFGtBPCFO5k9vrR7dXlU-110">
          <mxGeometry width="60" height="40" as="geometry" />
        </mxCell>
        <mxCell id="fFGtBPCFO5k9vrR7dXlU-112" value="&#xa;Tested_Positive&#xa;&#xa;" style="shape=partialRectangle;html=1;whiteSpace=wrap;connectable=0;overflow=hidden;fillColor=none;top=0;left=0;bottom=0;right=0;" vertex="1" parent="fFGtBPCFO5k9vrR7dXlU-110">
          <mxGeometry x="60" width="90" height="40" as="geometry" />
        </mxCell>
        <mxCell id="fFGtBPCFO5k9vrR7dXlU-113" value="" style="shape=partialRectangle;html=1;whiteSpace=wrap;collapsible=0;dropTarget=0;pointerEvents=0;fillColor=none;top=0;left=0;bottom=0;right=0;points=[[0,0.5],[1,0.5]];portConstraint=eastwest;" vertex="1" parent="fFGtBPCFO5k9vrR7dXlU-106">
          <mxGeometry y="80" width="150" height="40" as="geometry" />
        </mxCell>
        <mxCell id="fFGtBPCFO5k9vrR7dXlU-114" value=".351" style="shape=partialRectangle;html=1;whiteSpace=wrap;connectable=0;overflow=hidden;fillColor=none;top=0;left=0;bottom=0;right=0;" vertex="1" parent="fFGtBPCFO5k9vrR7dXlU-113">
          <mxGeometry width="60" height="40" as="geometry" />
        </mxCell>
        <mxCell id="fFGtBPCFO5k9vrR7dXlU-115" value="Tested_Negative" style="shape=partialRectangle;html=1;whiteSpace=wrap;connectable=0;overflow=hidden;fillColor=none;top=0;left=0;bottom=0;right=0;" vertex="1" parent="fFGtBPCFO5k9vrR7dXlU-113">
          <mxGeometry x="60" width="90" height="40" as="geometry" />
        </mxCell>
        <mxCell id="fFGtBPCFO5k9vrR7dXlU-116" value="" style="shape=partialRectangle;html=1;whiteSpace=wrap;collapsible=0;dropTarget=0;pointerEvents=0;fillColor=none;top=0;left=0;bottom=0;right=0;points=[[0,0.5],[1,0.5]];portConstraint=eastwest;" vertex="1" parent="fFGtBPCFO5k9vrR7dXlU-106">
          <mxGeometry y="120" width="150" height="40" as="geometry" />
        </mxCell>
        <mxCell id="fFGtBPCFO5k9vrR7dXlU-117" value=".672" style="shape=partialRectangle;html=1;whiteSpace=wrap;connectable=0;overflow=hidden;fillColor=none;top=0;left=0;bottom=0;right=0;" vertex="1" parent="fFGtBPCFO5k9vrR7dXlU-116">
          <mxGeometry width="60" height="40" as="geometry" />
        </mxCell>
        <mxCell id="fFGtBPCFO5k9vrR7dXlU-118" value="&#xa;Tested_Positive&#xa;&#xa;" style="shape=partialRectangle;html=1;whiteSpace=wrap;connectable=0;overflow=hidden;fillColor=none;top=0;left=0;bottom=0;right=0;" vertex="1" parent="fFGtBPCFO5k9vrR7dXlU-116">
          <mxGeometry x="60" width="90" height="40" as="geometry" />
        </mxCell>
        <mxCell id="fFGtBPCFO5k9vrR7dXlU-119" value="" style="shape=partialRectangle;html=1;whiteSpace=wrap;collapsible=0;dropTarget=0;pointerEvents=0;fillColor=none;top=0;left=0;bottom=0;right=0;points=[[0,0.5],[1,0.5]];portConstraint=eastwest;" vertex="1" parent="fFGtBPCFO5k9vrR7dXlU-106">
          <mxGeometry y="160" width="150" height="40" as="geometry" />
        </mxCell>
        <mxCell id="fFGtBPCFO5k9vrR7dXlU-120" value=".167" style="shape=partialRectangle;html=1;whiteSpace=wrap;connectable=0;overflow=hidden;fillColor=none;top=0;left=0;bottom=0;right=0;" vertex="1" parent="fFGtBPCFO5k9vrR7dXlU-119">
          <mxGeometry width="60" height="40" as="geometry" />
        </mxCell>
        <mxCell id="fFGtBPCFO5k9vrR7dXlU-121" value="&#xa;Tested_Negative&#xa;&#xa;" style="shape=partialRectangle;html=1;whiteSpace=wrap;connectable=0;overflow=hidden;fillColor=none;top=0;left=0;bottom=0;right=0;" vertex="1" parent="fFGtBPCFO5k9vrR7dXlU-119">
          <mxGeometry x="60" width="90" height="40" as="geometry" />
        </mxCell>
        <mxCell id="fFGtBPCFO5k9vrR7dXlU-122" value="" style="shape=partialRectangle;html=1;whiteSpace=wrap;collapsible=0;dropTarget=0;pointerEvents=0;fillColor=none;top=0;left=0;bottom=0;right=0;points=[[0,0.5],[1,0.5]];portConstraint=eastwest;" vertex="1" parent="fFGtBPCFO5k9vrR7dXlU-106">
          <mxGeometry y="200" width="150" height="40" as="geometry" />
        </mxCell>
        <mxCell id="fFGtBPCFO5k9vrR7dXlU-123" value="2.288" style="shape=partialRectangle;html=1;whiteSpace=wrap;connectable=0;overflow=hidden;fillColor=none;top=0;left=0;bottom=0;right=0;" vertex="1" parent="fFGtBPCFO5k9vrR7dXlU-122">
          <mxGeometry width="60" height="40" as="geometry" />
        </mxCell>
        <mxCell id="fFGtBPCFO5k9vrR7dXlU-124" value="&#xa;Tested_Positive&#xa;&#xa;" style="shape=partialRectangle;html=1;whiteSpace=wrap;connectable=0;overflow=hidden;fillColor=none;top=0;left=0;bottom=0;right=0;" vertex="1" parent="fFGtBPCFO5k9vrR7dXlU-122">
          <mxGeometry x="60" width="90" height="40" as="geometry" />
        </mxCell>
        <mxCell id="fFGtBPCFO5k9vrR7dXlU-125" value="" style="shape=partialRectangle;html=1;whiteSpace=wrap;collapsible=0;dropTarget=0;pointerEvents=0;fillColor=none;top=0;left=0;bottom=0;right=0;points=[[0,0.5],[1,0.5]];portConstraint=eastwest;" vertex="1" parent="fFGtBPCFO5k9vrR7dXlU-106">
          <mxGeometry y="240" width="150" height="40" as="geometry" />
        </mxCell>
        <mxCell id="fFGtBPCFO5k9vrR7dXlU-126" value=".201" style="shape=partialRectangle;html=1;whiteSpace=wrap;connectable=0;overflow=hidden;fillColor=none;top=0;left=0;bottom=0;right=0;" vertex="1" parent="fFGtBPCFO5k9vrR7dXlU-125">
          <mxGeometry width="60" height="40" as="geometry" />
        </mxCell>
        <mxCell id="fFGtBPCFO5k9vrR7dXlU-127" value="&#xa;Tested_Negative&#xa;&#xa;" style="shape=partialRectangle;html=1;whiteSpace=wrap;connectable=0;overflow=hidden;fillColor=none;top=0;left=0;bottom=0;right=0;" vertex="1" parent="fFGtBPCFO5k9vrR7dXlU-125">
          <mxGeometry x="60" width="90" height="40" as="geometry" />
        </mxCell>
        <mxCell id="fFGtBPCFO5k9vrR7dXlU-128" value="" style="shape=partialRectangle;html=1;whiteSpace=wrap;collapsible=0;dropTarget=0;pointerEvents=0;fillColor=none;top=0;left=0;bottom=0;right=0;points=[[0,0.5],[1,0.5]];portConstraint=eastwest;" vertex="1" parent="fFGtBPCFO5k9vrR7dXlU-106">
          <mxGeometry y="280" width="150" height="40" as="geometry" />
        </mxCell>
        <mxCell id="fFGtBPCFO5k9vrR7dXlU-129" value=".248" style="shape=partialRectangle;html=1;whiteSpace=wrap;connectable=0;overflow=hidden;fillColor=none;top=0;left=0;bottom=0;right=0;" vertex="1" parent="fFGtBPCFO5k9vrR7dXlU-128">
          <mxGeometry width="60" height="40" as="geometry" />
        </mxCell>
        <mxCell id="fFGtBPCFO5k9vrR7dXlU-130" value="&#xa;Tested_Positive&#xa;&#xa;" style="shape=partialRectangle;html=1;whiteSpace=wrap;connectable=0;overflow=hidden;fillColor=none;top=0;left=0;bottom=0;right=0;" vertex="1" parent="fFGtBPCFO5k9vrR7dXlU-128">
          <mxGeometry x="60" width="90" height="40" as="geometry" />
        </mxCell>
        <mxCell id="fFGtBPCFO5k9vrR7dXlU-131" value="" style="shape=partialRectangle;html=1;whiteSpace=wrap;collapsible=0;dropTarget=0;pointerEvents=0;fillColor=none;top=0;left=0;bottom=0;right=0;points=[[0,0.5],[1,0.5]];portConstraint=eastwest;" vertex="1" parent="fFGtBPCFO5k9vrR7dXlU-106">
          <mxGeometry y="320" width="150" height="40" as="geometry" />
        </mxCell>
        <mxCell id="fFGtBPCFO5k9vrR7dXlU-132" value=".134" style="shape=partialRectangle;html=1;whiteSpace=wrap;connectable=0;overflow=hidden;fillColor=none;top=0;left=0;bottom=0;right=0;" vertex="1" parent="fFGtBPCFO5k9vrR7dXlU-131">
          <mxGeometry width="60" height="40" as="geometry" />
        </mxCell>
        <mxCell id="fFGtBPCFO5k9vrR7dXlU-133" value="&#xa;Tested_Negative&#xa;&#xa;" style="shape=partialRectangle;html=1;whiteSpace=wrap;connectable=0;overflow=hidden;fillColor=none;top=0;left=0;bottom=0;right=0;" vertex="1" parent="fFGtBPCFO5k9vrR7dXlU-131">
          <mxGeometry x="60" width="90" height="40" as="geometry" />
        </mxCell>
        <mxCell id="fFGtBPCFO5k9vrR7dXlU-134" value="" style="shape=partialRectangle;html=1;whiteSpace=wrap;collapsible=0;dropTarget=0;pointerEvents=0;fillColor=none;top=0;left=0;bottom=0;right=0;points=[[0,0.5],[1,0.5]];portConstraint=eastwest;" vertex="1" parent="fFGtBPCFO5k9vrR7dXlU-106">
          <mxGeometry y="360" width="150" height="40" as="geometry" />
        </mxCell>
        <mxCell id="fFGtBPCFO5k9vrR7dXlU-135" value=".158" style="shape=partialRectangle;html=1;whiteSpace=wrap;connectable=0;overflow=hidden;fillColor=none;top=0;left=0;bottom=0;right=0;" vertex="1" parent="fFGtBPCFO5k9vrR7dXlU-134">
          <mxGeometry width="60" height="40" as="geometry" />
        </mxCell>
        <mxCell id="fFGtBPCFO5k9vrR7dXlU-136" value="&#xa;Tested_Positive&#xa;&#xa;" style="shape=partialRectangle;html=1;whiteSpace=wrap;connectable=0;overflow=hidden;fillColor=none;top=0;left=0;bottom=0;right=0;" vertex="1" parent="fFGtBPCFO5k9vrR7dXlU-134">
          <mxGeometry x="60" width="90" height="40" as="geometry" />
        </mxCell>
        <mxCell id="fFGtBPCFO5k9vrR7dXlU-137" value="" style="shape=partialRectangle;html=1;whiteSpace=wrap;collapsible=0;dropTarget=0;pointerEvents=0;fillColor=none;top=0;left=0;bottom=0;right=0;points=[[0,0.5],[1,0.5]];portConstraint=eastwest;" vertex="1" parent="fFGtBPCFO5k9vrR7dXlU-106">
          <mxGeometry y="400" width="150" height="40" as="geometry" />
        </mxCell>
        <mxCell id="fFGtBPCFO5k9vrR7dXlU-138" value=".232" style="shape=partialRectangle;html=1;whiteSpace=wrap;connectable=0;overflow=hidden;fillColor=none;top=0;left=0;bottom=0;right=0;" vertex="1" parent="fFGtBPCFO5k9vrR7dXlU-137">
          <mxGeometry width="60" height="40" as="geometry" />
        </mxCell>
        <mxCell id="fFGtBPCFO5k9vrR7dXlU-139" value="&#xa;Tested_Positive&#xa;&#xa;" style="shape=partialRectangle;html=1;whiteSpace=wrap;connectable=0;overflow=hidden;fillColor=none;top=0;left=0;bottom=0;right=0;" vertex="1" parent="fFGtBPCFO5k9vrR7dXlU-137">
          <mxGeometry x="60" width="90" height="40" as="geometry" />
        </mxCell>
        <mxCell id="fFGtBPCFO5k9vrR7dXlU-140" value="" style="shape=partialRectangle;html=1;whiteSpace=wrap;collapsible=0;dropTarget=0;pointerEvents=0;fillColor=none;top=0;left=0;bottom=0;right=0;points=[[0,0.5],[1,0.5]];portConstraint=eastwest;" vertex="1" parent="fFGtBPCFO5k9vrR7dXlU-106">
          <mxGeometry y="440" width="150" height="40" as="geometry" />
        </mxCell>
        <mxCell id="fFGtBPCFO5k9vrR7dXlU-141" value=".191" style="shape=partialRectangle;html=1;whiteSpace=wrap;connectable=0;overflow=hidden;fillColor=none;top=0;left=0;bottom=0;right=0;" vertex="1" parent="fFGtBPCFO5k9vrR7dXlU-140">
          <mxGeometry width="60" height="40" as="geometry" />
        </mxCell>
        <mxCell id="fFGtBPCFO5k9vrR7dXlU-142" value="&#xa;Tested_Negative&#xa;&#xa;" style="shape=partialRectangle;html=1;whiteSpace=wrap;connectable=0;overflow=hidden;fillColor=none;top=0;left=0;bottom=0;right=0;" vertex="1" parent="fFGtBPCFO5k9vrR7dXlU-140">
          <mxGeometry x="60" width="90" height="40" as="geometry" />
        </mxCell>
        <mxCell id="fFGtBPCFO5k9vrR7dXlU-143" value="" style="shape=partialRectangle;html=1;whiteSpace=wrap;collapsible=0;dropTarget=0;pointerEvents=0;fillColor=none;top=0;left=0;bottom=0;right=0;points=[[0,0.5],[1,0.5]];portConstraint=eastwest;" vertex="1" parent="fFGtBPCFO5k9vrR7dXlU-106">
          <mxGeometry y="480" width="150" height="40" as="geometry" />
        </mxCell>
        <mxCell id="fFGtBPCFO5k9vrR7dXlU-144" value=".537" style="shape=partialRectangle;html=1;whiteSpace=wrap;connectable=0;overflow=hidden;fillColor=none;top=0;left=0;bottom=0;right=0;" vertex="1" parent="fFGtBPCFO5k9vrR7dXlU-143">
          <mxGeometry width="60" height="40" as="geometry" />
        </mxCell>
        <mxCell id="fFGtBPCFO5k9vrR7dXlU-145" value="&#xa;Tested_Positive&#xa;&#xa;" style="shape=partialRectangle;html=1;whiteSpace=wrap;connectable=0;overflow=hidden;fillColor=none;top=0;left=0;bottom=0;right=0;" vertex="1" parent="fFGtBPCFO5k9vrR7dXlU-143">
          <mxGeometry x="60" width="90" height="40" as="geometry" />
        </mxCell>
        <mxCell id="fFGtBPCFO5k9vrR7dXlU-146" value="" style="shape=partialRectangle;html=1;whiteSpace=wrap;collapsible=0;dropTarget=0;pointerEvents=0;fillColor=none;top=0;left=0;bottom=0;right=0;points=[[0,0.5],[1,0.5]];portConstraint=eastwest;" vertex="1" parent="fFGtBPCFO5k9vrR7dXlU-106">
          <mxGeometry y="520" width="150" height="40" as="geometry" />
        </mxCell>
        <mxCell id="fFGtBPCFO5k9vrR7dXlU-147" value="1.441" style="shape=partialRectangle;html=1;whiteSpace=wrap;connectable=0;overflow=hidden;fillColor=none;top=0;left=0;bottom=0;right=0;" vertex="1" parent="fFGtBPCFO5k9vrR7dXlU-146">
          <mxGeometry width="60" height="40" as="geometry" />
        </mxCell>
        <mxCell id="fFGtBPCFO5k9vrR7dXlU-148" value="&#xa;Tested_Negative&#xa;&#xa;" style="shape=partialRectangle;html=1;whiteSpace=wrap;connectable=0;overflow=hidden;fillColor=none;top=0;left=0;bottom=0;right=0;" vertex="1" parent="fFGtBPCFO5k9vrR7dXlU-146">
          <mxGeometry x="60" width="90" height="40" as="geometry" />
        </mxCell>
        <mxCell id="fFGtBPCFO5k9vrR7dXlU-149" value="" style="shape=partialRectangle;html=1;whiteSpace=wrap;collapsible=0;dropTarget=0;pointerEvents=0;fillColor=none;top=0;left=0;bottom=0;right=0;points=[[0,0.5],[1,0.5]];portConstraint=eastwest;" vertex="1" parent="fFGtBPCFO5k9vrR7dXlU-106">
          <mxGeometry y="560" width="150" height="40" as="geometry" />
        </mxCell>
        <mxCell id="fFGtBPCFO5k9vrR7dXlU-150" value=".398" style="shape=partialRectangle;html=1;whiteSpace=wrap;connectable=0;overflow=hidden;fillColor=none;top=0;left=0;bottom=0;right=0;" vertex="1" parent="fFGtBPCFO5k9vrR7dXlU-149">
          <mxGeometry width="60" height="40" as="geometry" />
        </mxCell>
        <mxCell id="fFGtBPCFO5k9vrR7dXlU-151" value="&#xa;Tested_Positive&#xa;&#xa;" style="shape=partialRectangle;html=1;whiteSpace=wrap;connectable=0;overflow=hidden;fillColor=none;top=0;left=0;bottom=0;right=0;" vertex="1" parent="fFGtBPCFO5k9vrR7dXlU-149">
          <mxGeometry x="60" width="90" height="40" as="geometry" />
        </mxCell>
        <mxCell id="fFGtBPCFO5k9vrR7dXlU-152" value="" style="shape=partialRectangle;html=1;whiteSpace=wrap;collapsible=0;dropTarget=0;pointerEvents=0;fillColor=none;top=0;left=0;bottom=0;right=0;points=[[0,0.5],[1,0.5]];portConstraint=eastwest;" vertex="1" parent="fFGtBPCFO5k9vrR7dXlU-106">
          <mxGeometry y="600" width="150" height="40" as="geometry" />
        </mxCell>
        <mxCell id="fFGtBPCFO5k9vrR7dXlU-153" value=".587" style="shape=partialRectangle;html=1;whiteSpace=wrap;connectable=0;overflow=hidden;fillColor=none;top=0;left=0;bottom=0;right=0;" vertex="1" parent="fFGtBPCFO5k9vrR7dXlU-152">
          <mxGeometry width="60" height="40" as="geometry" />
        </mxCell>
        <mxCell id="fFGtBPCFO5k9vrR7dXlU-154" value="Tested_Positive" style="shape=partialRectangle;html=1;whiteSpace=wrap;connectable=0;overflow=hidden;fillColor=none;top=0;left=0;bottom=0;right=0;" vertex="1" parent="fFGtBPCFO5k9vrR7dXlU-152">
          <mxGeometry x="60" width="90" height="40" as="geometry" />
        </mxCell>
      </root>
    </mxGraphModel>
  </diagram>
</mxfile>
